# xmcd
#
# Track frame offsets:
#	150
#	16966
#	30319
#	44266
#	57841
#	72168
#	88595
#	101415
#	117543
#	131568
#
# Disc length: 1944
#
# Revision: 1
# Processed by: cddbd v1.5.1PL0 Copyright (c) Steve Scherf et al.
# Submitted via: EasyCDDAExtractor 4.5.0.2
# Normalized: r0:TRMNUM
#
DISCID=7c07960a
DTITLE=Aggelopoulos Sta8hs - Opws tote kai twra
DYEAR=1995
DGENRE=
TTITLE0=Eipes pws 8a r8eis
TTITLE1=Mia fwtia
TTITLE2=S`agapw kai fovamai
TTITLE3=Opws tote kai twra
TTITLE4=Thn kardia mou thn moirazw
TTITLE5=Ti na tous kanw tous agious
TTITLE6=sto sfyri ola ta bvazw
TTITLE7=Nikhtes kai nikhmenoi
TTITLE8=Fyge trellh
TTITLE9=San trelos
EXTD=klcanislupus©
EXTT0=klcanislupus©
EXTT1=
EXTT2=
EXTT3=
EXTT4=
EXTT5=
EXTT6=
EXTT7=
EXTT8=
EXTT9=
PLAYORDER=
